{"title":"Ellie Goulding - On My Mind (2015.Pop)","uid":12467013,"size":116498732,"categoryP":"video","categoryS":"music_videos","magnet":"?xt=urn:btih:35722ba74ad845a7e1bc37a1842d79c8dcbcc939&amp;dn=Ellie+Goulding+-+On+My+Mind+%282015.Pop%29&amp;tr=udp%3A%2F%2Ftracker.openbittorrent.com%3A80&amp;tr=udp%3A%2F%2Fopen.demonii.com%3A1337&amp;tr=udp%3A%2F%2Ftracker.coppersurfer.tk%3A6969&amp;tr=udp%3A%2F%2Fexodus.desync.com%3A6969","seeders":0,"leechers":1,"uploader":"MeRaDil","files":1,"time":1442867045,"description":"ELLIE GOULDING - ON MY MIND\n\n &lt;a href=&quot;\nhttp://gifyu.com/images/Ellie&quot; rel=&quot;nofollow&quot; target=&quot;_NEW&quot;&gt;\nhttp://gifyu.com/images/Ellie&lt;/a&gt; Goulding-2.png\n &lt;a href=&quot;\nhttp://gifyu.com/images/Ellie&quot; rel=&quot;nofollow&quot; target=&quot;_NEW&quot;&gt;\nhttp://gifyu.com/images/Ellie&lt;/a&gt; Goulding-3.png\n &lt;a href=&quot;\nhttp://gifyu.com/images/Ellie&quot; rel=&quot;nofollow&quot; target=&quot;_NEW&quot;&gt;\nhttp://gifyu.com/images/Ellie&lt;/a&gt; Goulding-4.png\n\n\nMEDIA INFO\nGeneral\nEllie Goulding - On My Mind\nFormat                                   : MPEG-4\nFormat profile                           : Base Media\nCodec ID                                 : isom\nFile size                                : 111 MiB\nDuration                                 : 4mn 4s\nOverall bit rate                         : 3 808 Kbps\nMusicVid name                            : On My Mind\nAlbum                                    : Delirium\nPerformer                                : Ellie Goulding\nGenre                                    : Pop\nContentType                              : Music Video\nRecorded date                            : 2015\nRating                                   : ***\nMake                                     : MeRaDil\nRelease time                             : UK . september 21 . 2015\n\nVideo\nID                                       : 1\nFormat                                   : AVC\nFormat/Info                              : Advanced Video Codec\nFormat profile                           : &lt;a class=&quot;__cf_email__&quot; href=&quot;/cdn-cgi/l/email-protection&quot; data-cfemail=&quot;eda5848a85ada1d9c3dd&quot;&gt;[email&amp;#160;protected]&lt;/a&gt;&lt;script data-cfhash='f9e31' type=&quot;text/javascript&quot;&gt;\n/* &lt;![CDATA[ */!function(){try{var t=&quot;currentScript&quot;in document?document.currentScript:function(){for(var t=document.getElementsByTagName(&quot;script&quot;),e=t.length;e--;)if(t[e].getAttribute(&quot;data-cfhash&quot;))return t[e]}();if(t&amp;&amp;t.previousSibling){var e,r,n,i,c=t.previousSibling,a=c.getAttribute(&quot;data-cfemail&quot;);if(a){for(e=&quot;&quot;,r=parseInt(a.substr(0,2),16),n=2;a.length-n;n+=2)i=parseInt(a.substr(n,2),16)^r,e+=String.fromCharCode(i);e=document.createTextNode(e),c.parentNode.replaceChild(e,c)}t.parentNode.removeChild(t);}}catch(u){}}()/* ]]&gt; */&lt;/script&gt;\nFormat settings, CABAC                   : Yes\nFormat settings, ReFrames                : 2 frames\nCodec ID                                 : avc1\nCodec ID/Info                            : Advanced Video Coding\nDuration                                 : 4mn 4s\nBit rate                                 : 3 546 Kbps\nWidth                                    : 1 920 pixels\nHeight                                   : 1 080 pixels\nDisplay aspect ratio                     : 16:9\nFrame rate mode                          : Variable\nFrame rate                               : 23.976 fps\nMinimum frame rate                       : 23.974 fps\nMaximum frame rate                       : 23.981 fps\nColor space                              : YUV\nChroma subsampling                       : 4:2:0\nBit depth                                : 8 bits\nScan type                                : Progressive\nBits/(Pixel*Frame)                       : 0.071\nStream size                              : 103 MiB (93%)\n\nAudio\nID                                       : 2\nFormat                                   : AAC\nFormat/Info                              : Advanced Audio Codec\nFormat profile                           : LC\nCodec ID                                 : 40\nDuration                                 : 4mn 4s\nBit rate mode                            : Constant\nBit rate                                 : 256 Kbps\nChannel(s)                               : 2 channels\nChannel positions                        : Front: L R\nSampling rate                            : 44.1 KHz\nCompression mode                         : Lossy\nStream size                              : 7.47 MiB (7%)\n\nEllie Goulding * Delirium * Promo","torrent":{"xt":"urn:btih:35722ba74ad845a7e1bc37a1842d79c8dcbcc939","amp;dn":"Ellie+Goulding+-+On+My+Mind+%282015.Pop%29","amp;tr":["udp%3A%2F%2Ftracker.openbittorrent.com%3A80","udp%3A%2F%2Fopen.demonii.com%3A1337","udp%3A%2F%2Ftracker.coppersurfer.tk%3A6969","udp%3A%2F%2Fexodus.desync.com%3A6969"],"infoHash":"35722ba74ad845a7e1bc37a1842d79c8dcbcc939","infoHashBuffer":{"type":"Buffer","data":[53,114,43,167,74,216,69,167,225,188,55,161,132,45,121,200,220,188,201,57]},"announce":[],"urlList":[]}}